<svg id="visual" viewBox="0 0 900 600" width="900" height="600" xmlns="http://www.w3.org/2000/svg" xmlns:xlink="http://www.w3.org/1999/xlink" version="1.1"><rect x="0" y="0" width="900" height="600" fill="#ffffff"></rect><g transform="translate(393.5016234733931 283.20378898047136)"><path d="M139.1 -146.8C187.4 -125.3 238.4 -88.2 259 -36.1C279.6 16 269.7 83 232.6 122.2C195.6 161.4 131.3 172.8 74.1 186C16.9 199.2 -33.3 214.2 -72.6 199.8C-111.9 185.4 -140.4 141.4 -151.1 98.9C-161.8 56.3 -154.8 15.1 -147.1 -25.5C-139.4 -66.1 -131.1 -106.2 -106.5 -131.9C-81.8 -157.5 -40.9 -168.8 2.2 -171.5C45.4 -174.1 90.8 -168.3 139.1 -146.8" fill="#801679"></path></g></svg>